<svg xmlns="http://www.w3.org/2000/svg" width="1200" height="760" viewBox="0 0 1200 760">
  <rect width="1200" height="760" fill="#f0f2f5"/>
  <rect x="20" y="20" width="1160" height="720" rx="10" fill="#ffffff" stroke="#d5d8dd"/>
  <rect x="45" y="45" width="1110" height="50" rx="8" fill="#eef3ff" stroke="#c6d4ff"/>
  <text x="65" y="76" font-family="Arial" font-size="18" fill="#1f2937">Data: 15/10/2026   Ora: 10:42:19   Timezone: Europe/Rome</text>
  <rect x="980" y="55" width="155" height="30" rx="6" fill="#2563eb"/>
  <text x="997" y="75" font-family="Arial" font-size="14" fill="#ffffff">Configura orario</text>
  <text x="330" y="145" font-family="Arial" font-size="32" font-weight="700" fill="#111827">Configurazione primo avvio - utenti e permessi</text>
  <rect x="50" y="180" width="350" height="420" rx="8" fill="#fafafa" stroke="#d1d5db"/>
  <rect x="425" y="180" width="350" height="420" rx="8" fill="#fafafa" stroke="#d1d5db"/>
  <rect x="800" y="180" width="350" height="420" rx="8" fill="#fafafa" stroke="#d1d5db"/>
  <text x="75" y="215" font-family="Arial" font-size="18" font-weight="700">Amministratore di sistema</text>
  <text x="450" y="215" font-family="Arial" font-size="18" font-weight="700">Installatore</text>
  <text x="825" y="215" font-family="Arial" font-size="18" font-weight="700">Utente finale</text>
  <rect x="420" y="625" width="170" height="38" rx="8" fill="#2563eb"/>
  <text x="440" y="650" font-family="Arial" font-size="15" fill="#fff">Applica configurazione</text>
  <rect x="610" y="625" width="140" height="38" rx="8" fill="#4b5563"/>
  <text x="634" y="650" font-family="Arial" font-size="15" fill="#fff">Backup recovery</text>
  <rect x="770" y="625" width="130" height="38" rx="8" fill="#b91c1c"/>
  <text x="798" y="650" font-family="Arial" font-size="15" fill="#fff">Factory Reset</text>
</svg>
